# xmcd
#
# Track frame offsets:
#	150
#	8915
#	23212
#	34101
#	44499
#	61532
#	69671
#	89937
#	98441
#	114790
#	127643
#	145112
#	157974
#	168744
#
# Disc length: 2458 seconds
# Revision: 0
# Processed by: cddbd v1.5.2PL0 Copyright (c) Steve Scherf et al.
# Submitted via: dBpowerAMP V12.0
#
DISCID=ab09980e
DTITLE=Frank Wakefield and Leon Morris - Frank Wakefield and Leon Morris
DYEAR=2016
DGENRE=Country
TTITLE0=You're the One
TTITLE1=Blue Monday
TTITLE2=My Endless Love
TTITLE3=Find 'em, Fool 'em and Leave 'em Alone
TTITLE4=Made Up My Mind
TTITLE5=Lena
TTITLE6=Here Today and Gone Tomorrow
TTITLE7=I Don't Believe You'd Do Me Wrong
TTITLE8=I Hear a Sweet Voice Calling
TTITLE9=Musician's Waltz
TTITLE10=Play Me the Waltz of the Angels
TTITLE11=Never Fall
TTITLE12=Sitting Here Waiting for You
TTITLE13=Rondo
EXTD=
EXTT0=
EXTT1=
EXTT2=
EXTT3=
EXTT4=
EXTT5=
EXTT6=
EXTT7=
EXTT8=
EXTT9=
EXTT10=
EXTT11=
EXTT12=
EXTT13=
PLAYORDER=
